Coordinates
version=1
nRows=14
nColumns=38
inDegrees=no

Units are S.I. units (second, meters, Newtons, ...)
If the header above contains a line with 'inDegrees', this indicates whether rotational values are in degrees (yes) or radians (no).

endheader
time	pelvis_tilt	pelvis_list	pelvis_rotation	pelvis_tx	pelvis_ty	pelvis_tz	hip_flexion_r	hip_adduction_r	hip_rotation_r	knee_angle_r	ankle_angle_r	subtalar_angle_r	mtp_angle_r	hip_flexion_l	hip_adduction_l	hip_rotation_l	knee_angle_l	ankle_angle_l	subtalar_angle_l	mtp_angle_l	lumbar_extension	lumbar_bending	lumbar_rotation	arm_flex_r	arm_add_r	arm_rot_r	elbow_flex_r	pro_sup_r	wrist_flex_r	wrist_dev_r	arm_flex_l	arm_add_l	arm_rot_l	elbow_flex_l	pro_sup_l	wrist_flex_l	wrist_dev_l
3.19	0.216991	1.39272	1.43106	0.587541	0.899406	1.02805	0.675776	-0.056	-0.163844	0.695095	-0.215911	0	0	0.0448674	0.0313736	-0.220111	0.127833	-0.373597	0	0	-0.0751776	0.0827162	-0.175695	0.723228	-0.301187	0.792359	1.44598	1.5708	0	0	0.277686	-0.434593	0.242545	1.6188	1.5708	0	0
3.2	0.215677	1.39082	1.43274	0.586966	0.906473	1.02702	0.680382	-0.0588249	-0.182611	0.657666	-0.213307	0	0	0.0363597	0.0321087	-0.218303	0.122029	-0.370721	0	0	-0.070778	0.0839129	-0.177497	0.723843	-0.300595	0.794381	1.44556	1.5708	0	0	0.275384	-0.434546	0.240268	1.61922	1.5708	0	0
3.21	0.214665	1.38924	1.43421	0.58635	0.913688	1.02596	0.683897	-0.0614027	-0.201512	0.621539	-0.209096	0	0	0.0273124	0.0329751	-0.216424	0.115997	-0.368057	0	0	-0.0666242	0.0852156	-0.179236	0.723766	-0.300235	0.795625	1.44592	1.5708	0	0	0.272729	-0.434193	0.237914	1.62012	1.5708	0	0
3.22	0.213454	1.38761	1.43586	0.585761	0.921006	1.02484	0.687017	-0.0635578	-0.219508	0.587	-0.203983	0	0	0.0183559	0.0337888	-0.214214	0.110281	-0.36558	0	0	-0.0624263	0.0865438	-0.18063	0.722873	-0.300113	0.795869	1.44714	1.5708	0	0	0.269977	-0.433747	0.235875	1.62126	1.5708	0	0
3.23	0.212957	1.38596	1.4369	0.585188	0.928417	1.02367	0.689756	-0.0651774	-0.236251	0.554477	-0.19921	0	0	0.00975298	0.0342161	-0.212337	0.105768	-0.362338	0	0	-0.0583097	0.0881558	-0.181753	0.721573	-0.300391	0.795543	1.44916	1.5708	0	0	0.267262	-0.433413	0.234118	1.62242	1.5708	0	0
3.24	0.212727	1.38445	1.43776	0.584673	0.93594	1.02247	0.691943	-0.0659815	-0.250952	0.525549	-0.195631	0	0	0.00139434	0.0343967	-0.210617	0.102422	-0.359335	0	0	-0.0543644	0.0898823	-0.182686	0.719965	-0.300904	0.794936	1.45189	1.5708	0	0	0.264618	-0.433239	0.2326	1.62359	1.5708	0	0
3.25	0.214191	1.38326	1.43696	0.584199	0.943543	1.02128	0.693428	-0.0660548	-0.26266	0.49977	-0.192953	0	0	-0.00714298	0.0342047	-0.208201	0.0996503	-0.356042	0	0	-0.0509706	0.0920713	-0.183397	0.7183	-0.301697	0.794353	1.45544	1.5708	0	0	0.262055	-0.43304	0.231191	1.62492	1.5708	0	0
3.26	0.217554	1.38229	1.43414	0.583784	0.95124	1.02006	0.694479	-0.0653947	-0.27077	0.477794	-0.190448	0	0	-0.015754	0.0334935	-0.205444	0.0975288	-0.352389	0	0	-0.0478855	0.0947228	-0.183916	0.716728	-0.302807	0.793976	1.45954	1.5708	0	0	0.259324	-0.432775	0.229523	1.62665	1.5708	0	0
3.27	0.223727	1.38167	1.42837	0.583407	0.958993	1.01886	0.694645	-0.0637576	-0.274107	0.459682	-0.187637	0	0	-0.0244045	0.0321159	-0.202513	0.0963839	-0.348363	0	0	-0.0454014	0.0981356	-0.184263	0.715481	-0.304	0.793887	1.46378	1.5708	0	0	0.256426	-0.432248	0.22738	1.62874	1.5708	0	0
3.28	0.231051	1.38136	1.42148	0.583074	0.966753	1.01764	0.69454	-0.061861	-0.27213	0.446664	-0.185011	0	0	-0.0329137	0.0303907	-0.199188	0.096431	-0.343747	0	0	-0.0435024	0.101973	-0.18465	0.714364	-0.304837	0.793826	1.46805	1.5708	0	0	0.253347	-0.431562	0.224718	1.63119	1.5708	0	0
3.29	0.238945	1.38143	1.4137	0.582818	0.974573	1.01643	0.694411	-0.05984	-0.265214	0.439016	-0.183034	0	0	-0.0414975	0.0284527	-0.196313	0.0973857	-0.338582	0	0	-0.0421926	0.105944	-0.184869	0.713241	-0.30551	0.793722	1.47268	1.5708	0	0	0.249901	-0.430957	0.221559	1.63408	1.5708	0	0
3.3	0.248065	1.38236	1.40457	0.582603	0.982519	1.01518	0.693438	-0.0569592	-0.255485	0.437618	-0.181074	0	0	-0.0510056	0.0263469	-0.194198	0.0986284	-0.332162	0	0	-0.0417731	0.110046	-0.185448	0.712819	-0.306151	0.794398	1.47753	1.5708	0	0	0.245663	-0.430538	0.217257	1.63781	1.5708	0	0
3.31	0.257047	1.38394	1.39565	0.582396	0.990589	1.01386	0.69199	-0.0535623	-0.244141	0.441966	-0.179891	0	0	-0.0610213	0.0243716	-0.193015	0.100665	-0.326202	0	0	-0.0418284	0.114132	-0.186802	0.713315	-0.306435	0.79618	1.48224	1.5708	0	0	0.240579	-0.430464	0.211882	1.64232	1.5708	0	0
3.32	0.267446	1.38548	1.38521	0.582215	0.99872	1.01256	0.688971	-0.0498784	-0.229232	0.445966	-0.181373	0	0	-0.0708153	0.0221174	-0.192671	0.103567	-0.320345	0	0	-0.0420097	0.118626	-0.188527	0.714261	-0.306305	0.798402	1.48668	1.5708	0	0	0.234774	-0.430406	0.205656	1.64736	1.5708	0	0
